<svg id='logo' width="108" height="31" viewBox="0 0 108 31" fill="none" xmlns="http://www.w3.org/2000/svg">
<path d="M0.196023 30V0.90909H4.58523V26.2216H17.767V30H0.196023ZM46.9112 15.4545C46.9112 18.5606 46.343 21.2311 45.2067 23.4659C44.0703 25.6913 42.5125 27.4053 40.5334 28.608C38.5637 29.8011 36.3241 30.3977 33.8146 30.3977C31.2957 30.3977 29.0466 29.8011 27.0675 28.608C25.0978 27.4053 23.5447 25.6866 22.4084 23.4517C21.272 21.2169 20.7038 18.5511 20.7038 15.4545C20.7038 12.3485 21.272 9.68276 22.4084 7.45739C23.5447 5.22254 25.0978 3.50852 27.0675 2.31534C29.0466 1.11269 31.2957 0.511363 33.8146 0.511363C36.3241 0.511363 38.5637 1.11269 40.5334 2.31534C42.5125 3.50852 44.0703 5.22254 45.2067 7.45739C46.343 9.68276 46.9112 12.3485 46.9112 15.4545ZM42.5646 15.4545C42.5646 13.0871 42.1811 11.0937 41.4141 9.47443C40.6565 7.84564 39.6148 6.61458 38.2891 5.78125C36.9728 4.93845 35.4813 4.51705 33.8146 4.51705C32.1385 4.51705 30.6423 4.93845 29.326 5.78125C28.0097 6.61458 26.968 7.84564 26.201 9.47443C25.4434 11.0937 25.0646 13.0871 25.0646 15.4545C25.0646 17.822 25.4434 19.8201 26.201 21.4489C26.968 23.0682 28.0097 24.2992 29.326 25.142C30.6423 25.9754 32.1385 26.392 33.8146 26.392C35.4813 26.392 36.9728 25.9754 38.2891 25.142C39.6148 24.2992 40.6565 23.0682 41.4141 21.4489C42.1811 19.8201 42.5646 17.822 42.5646 15.4545ZM72.071 10.0994C71.7964 9.23769 71.4271 8.46591 70.9631 7.78409C70.5085 7.0928 69.964 6.50568 69.3295 6.02273C68.6951 5.5303 67.9706 5.15625 67.1562 4.90057C66.3513 4.64489 65.4659 4.51705 64.5 4.51705C62.8617 4.51705 61.3845 4.93845 60.0682 5.78125C58.7519 6.62405 57.7102 7.85985 56.9432 9.48864C56.1856 11.108 55.8068 13.0919 55.8068 15.4403C55.8068 17.7983 56.1903 19.7917 56.9574 21.4205C57.7244 23.0492 58.7756 24.285 60.1108 25.1278C61.446 25.9706 62.9659 26.392 64.6705 26.392C66.2519 26.392 67.6297 26.0701 68.804 25.4261C69.9877 24.7822 70.9015 23.8731 71.5455 22.6989C72.1989 21.5152 72.5256 20.1231 72.5256 18.5227L73.6619 18.7358H65.3381V15.1136H76.7727V18.4233C76.7727 20.8665 76.2519 22.9877 75.2102 24.7869C74.178 26.5767 72.7481 27.9593 70.9205 28.9347C69.1023 29.91 67.0189 30.3977 64.6705 30.3977C62.0379 30.3977 59.7273 29.7917 57.7386 28.5795C55.7595 27.3674 54.2159 25.6487 53.108 23.4233C52 21.1884 51.446 18.5369 51.446 15.4688C51.446 13.1487 51.768 11.0653 52.4119 9.21875C53.0559 7.37216 53.9602 5.80492 55.125 4.51705C56.2992 3.2197 57.6771 2.23011 59.2585 1.5483C60.8494 0.857007 62.5871 0.511363 64.4716 0.511363C66.0436 0.511363 67.5066 0.74337 68.8608 1.20739C70.2244 1.6714 71.4366 2.32954 72.4972 3.18182C73.5672 4.03409 74.4527 5.04735 75.1534 6.22159C75.8542 7.38636 76.3277 8.67898 76.5739 10.0994H72.071ZM107.614 15.4545C107.614 18.5606 107.046 21.2311 105.91 23.4659C104.773 25.6913 103.216 27.4053 101.237 28.608C99.2668 29.8011 97.0272 30.3977 94.5178 30.3977C91.9988 30.3977 89.7498 29.8011 87.7706 28.608C85.8009 27.4053 84.2479 25.6866 83.1115 23.4517C81.9751 21.2169 81.407 18.5511 81.407 15.4545C81.407 12.3485 81.9751 9.68276 83.1115 7.45739C84.2479 5.22254 85.8009 3.50852 87.7706 2.31534C89.7498 1.11269 91.9988 0.511363 94.5178 0.511363C97.0272 0.511363 99.2668 1.11269 101.237 2.31534C103.216 3.50852 104.773 5.22254 105.91 7.45739C107.046 9.68276 107.614 12.3485 107.614 15.4545ZM103.268 15.4545C103.268 13.0871 102.884 11.0937 102.117 9.47443C101.36 7.84564 100.318 6.61458 98.9922 5.78125C97.6759 4.93845 96.1844 4.51705 94.5178 4.51705C92.8416 4.51705 91.3454 4.93845 90.0291 5.78125C88.7128 6.61458 87.6712 7.84564 86.9041 9.47443C86.1465 11.0937 85.7678 13.0871 85.7678 15.4545C85.7678 17.822 86.1465 19.8201 86.9041 21.4489C87.6712 23.0682 88.7128 24.2992 90.0291 25.142C91.3454 25.9754 92.8416 26.392 94.5178 26.392C96.1844 26.392 97.6759 25.9754 98.9922 25.142C100.318 24.2992 101.36 23.0682 102.117 21.4489C102.884 19.8201 103.268 17.822 103.268 15.4545Z" fill="black"/>
</svg>
